<svg width="158" height="48" viewBox="0 0 158 48" fill="none" xmlns="http://www.w3.org/2000/svg">
<path fill-rule="evenodd" clip-rule="evenodd" d="M34.5868 8.40049L24.9 5.80493C24.2313 5.62574 23.6892 6.04172 23.6892 6.73404V16.7625C23.6892 17.4549 24.2313 18.1614 24.9 18.3405L34.5868 20.9361C35.2555 21.1153 35.7977 20.6993 35.7977 20.007V9.9785C35.7977 9.28617 35.2555 8.57968 34.5868 8.40049ZM24.9 2.04424C22.2251 1.3275 20.0566 2.99141 20.0566 5.7607V15.7892C20.0566 18.5585 22.2251 21.3845 24.9 22.1012L34.5868 24.6968C37.2617 25.4135 39.4302 23.7496 39.4302 20.9803V10.9518C39.4302 8.18254 37.2617 5.35655 34.5868 4.63981L24.9 2.04424Z" fill="#B2DDFF" style="fill:#B2DDFF;fill:color(display-p3 0.6980 0.8667 1.0000);fill-opacity:1;"/>
<path fill-rule="evenodd" clip-rule="evenodd" d="M26.9812 16.5707L14.8727 13.3263C14.204 13.1471 13.6618 13.5631 13.6618 14.2554V26.791C13.6618 27.4833 14.204 28.1898 14.8727 28.369L26.9812 31.6135C27.6499 31.7927 28.192 31.3767 28.192 30.6844V18.1488C28.192 17.4564 27.6499 16.7499 26.9812 16.5707ZM14.8727 9.5656C12.1978 8.84886 10.0293 10.5128 10.0293 13.2821V25.8177C10.0293 28.587 12.1978 31.413 14.8727 32.1297L26.9812 35.3742C29.6561 36.0909 31.8245 34.427 31.8245 31.6577V19.1221C31.8245 16.3528 29.6561 13.5268 26.9812 12.8101L14.8727 9.5656Z" fill="#53B1FD" style="fill:#53B1FD;fill:color(display-p3 0.3268 0.6933 0.9932);fill-opacity:1;"/>
<path fill-rule="evenodd" clip-rule="evenodd" d="M19.3736 24.741L4.84339 20.8477C4.17466 20.6685 3.63254 21.0844 3.63254 21.7768V36.8195C3.63254 37.5118 4.17466 38.2183 4.84339 38.3975L19.3736 42.2909C20.0423 42.47 20.5844 42.0541 20.5844 41.3617V26.319C20.5844 25.6267 20.0423 24.9202 19.3736 24.741ZM4.84339 17.087C2.16846 16.3702 0 18.0341 0 20.8034V35.8462C0 38.6155 2.16846 41.4414 4.84339 42.1582L19.3736 46.0515C22.0485 46.7683 24.2169 45.1044 24.2169 42.3351V27.2923C24.2169 24.523 22.0485 21.6971 19.3736 20.9803L4.84339 17.087Z" fill="#2390FA" style="fill:#2390FA;fill:color(display-p3 0.1373 0.5647 0.9804);fill-opacity:1;"/>
<path d="M65.2955 32.7557C63.9886 32.7557 62.8665 32.4688 61.929 31.8949C60.9972 31.321 60.2784 30.5284 59.7727 29.517C59.2727 28.5 59.0227 27.3295 59.0227 26.0057C59.0227 24.6761 59.2784 23.5028 59.7898 22.4858C60.3011 21.4631 61.0227 20.6676 61.9545 20.0994C62.892 19.5256 64 19.2386 65.2784 19.2386C66.3409 19.2386 67.2813 19.4347 68.0994 19.8267C68.9233 20.2131 69.5795 20.7614 70.0682 21.4716C70.5568 22.1761 70.8352 23 70.9034 23.9432H67.9545C67.8352 23.3125 67.5511 22.7869 67.1023 22.3665C66.6591 21.9403 66.0653 21.7273 65.321 21.7273C64.6903 21.7273 64.1364 21.8977 63.6591 22.2386C63.1818 22.5739 62.8097 23.0568 62.5426 23.6875C62.2813 24.3182 62.1506 25.0739 62.1506 25.9545C62.1506 26.8466 62.2813 27.6136 62.5426 28.2557C62.804 28.892 63.1705 29.3835 63.642 29.7301C64.1193 30.071 64.679 30.2415 65.321 30.2415C65.7756 30.2415 66.1818 30.1562 66.5398 29.9858C66.9034 29.8097 67.2074 29.5568 67.4517 29.2273C67.696 28.8977 67.8636 28.4972 67.9545 28.0256H70.9034C70.8295 28.9517 70.5568 29.7727 70.0852 30.4886C69.6136 31.1989 68.9716 31.7557 68.1591 32.1591C67.3466 32.5568 66.392 32.7557 65.2955 32.7557ZM77.4438 32.7642C76.6143 32.7642 75.8671 32.6165 75.2024 32.321C74.5433 32.0199 74.0205 31.5767 73.6342 30.9915C73.2535 30.4062 73.0632 29.6847 73.0632 28.8267C73.0632 28.0881 73.1995 27.4773 73.4722 26.9943C73.745 26.5114 74.1171 26.125 74.5887 25.8352C75.0603 25.5455 75.5916 25.3267 76.1825 25.179C76.7791 25.0256 77.3955 24.9148 78.0319 24.8466C78.7989 24.767 79.4211 24.696 79.8984 24.6335C80.3757 24.5653 80.7222 24.4631 80.9382 24.3267C81.1597 24.1847 81.2705 23.9659 81.2705 23.6705V23.6193C81.2705 22.9773 81.0802 22.4801 80.6995 22.1278C80.3188 21.7756 79.7705 21.5994 79.0546 21.5994C78.2989 21.5994 77.6995 21.7642 77.2563 22.0938C76.8188 22.4233 76.5234 22.8125 76.37 23.2614L73.4893 22.8523C73.7166 22.0568 74.0916 21.392 74.6143 20.858C75.137 20.3182 75.7762 19.9148 76.5319 19.6477C77.2876 19.375 78.1228 19.2386 79.0376 19.2386C79.6683 19.2386 80.2961 19.3125 80.9211 19.4602C81.5461 19.608 82.1171 19.8523 82.6342 20.1932C83.1512 20.5284 83.566 20.9858 83.8785 21.5653C84.1967 22.1449 84.3558 22.8693 84.3558 23.7386V32.5H81.3899V30.7017H81.2876C81.1001 31.0653 80.8359 31.4062 80.495 31.7244C80.1597 32.0369 79.7364 32.2898 79.2251 32.483C78.7194 32.6705 78.1257 32.7642 77.4438 32.7642ZM78.245 30.4972C78.8643 30.4972 79.4012 30.375 79.8558 30.1307C80.3103 29.8807 80.6597 29.5511 80.9041 29.142C81.1541 28.733 81.2791 28.2869 81.2791 27.804V26.2614C81.1825 26.3409 81.0177 26.4148 80.7847 26.483C80.5575 26.5511 80.3018 26.6108 80.0177 26.6619C79.7336 26.7131 79.4524 26.7585 79.1739 26.7983C78.8955 26.8381 78.6541 26.8722 78.4495 26.9006C77.9893 26.9631 77.5774 27.0653 77.2137 27.2074C76.8501 27.3494 76.5632 27.5483 76.3529 27.804C76.1427 28.054 76.0376 28.3778 76.0376 28.7756C76.0376 29.3438 76.245 29.7727 76.6597 30.0625C77.0745 30.3523 77.6029 30.4972 78.245 30.4972ZM87.698 32.5V19.4091H90.6895V21.5909H90.8259C91.0645 20.8352 91.4736 20.2528 92.0532 19.8438C92.6384 19.429 93.306 19.2216 94.056 19.2216C94.2264 19.2216 94.4168 19.2301 94.627 19.2472C94.8429 19.2585 95.0219 19.2784 95.1639 19.3068V22.1449C95.0333 22.0994 94.8259 22.0597 94.5418 22.0256C94.2634 21.9858 93.9935 21.9659 93.7321 21.9659C93.1696 21.9659 92.6639 22.0881 92.2151 22.3324C91.7719 22.571 91.4225 22.9034 91.1668 23.3295C90.9111 23.7557 90.7833 24.2472 90.7833 24.804V32.5H87.698ZM109.545 19.4091L104.883 32.5H101.474L96.8123 19.4091H100.102L103.111 29.1335H103.247L106.264 19.4091H109.545ZM111.92 32.5V19.4091H115.005V32.5H111.92ZM113.471 17.5511C112.983 17.5511 112.562 17.3892 112.21 17.0653C111.858 16.7358 111.682 16.3409 111.682 15.8807C111.682 15.4148 111.858 15.0199 112.21 14.696C112.562 14.3665 112.983 14.2017 113.471 14.2017C113.966 14.2017 114.386 14.3665 114.733 14.696C115.085 15.0199 115.261 15.4148 115.261 15.8807C115.261 16.3409 115.085 16.7358 114.733 17.0653C114.386 17.3892 113.966 17.5511 113.471 17.5511ZM124.955 19.4091V21.7955H117.429V19.4091H124.955ZM119.287 16.2727H122.373V28.5625C122.373 28.9773 122.435 29.2955 122.56 29.517C122.691 29.733 122.861 29.8807 123.071 29.9602C123.282 30.0398 123.515 30.0795 123.77 30.0795C123.963 30.0795 124.14 30.0653 124.299 30.0369C124.463 30.0085 124.588 29.983 124.674 29.9602L125.194 32.3722C125.029 32.429 124.793 32.4915 124.486 32.5597C124.185 32.6278 123.816 32.6676 123.378 32.679C122.606 32.7017 121.91 32.5852 121.29 32.3295C120.671 32.0682 120.179 31.6648 119.816 31.1193C119.458 30.5739 119.282 29.892 119.287 29.0739V16.2727ZM127.775 32.5V19.4091H130.767V21.5909H130.903C131.142 20.8352 131.551 20.2528 132.13 19.8438C132.716 19.429 133.383 19.2216 134.133 19.2216C134.304 19.2216 134.494 19.2301 134.704 19.2472C134.92 19.2585 135.099 19.2784 135.241 19.3068V22.1449C135.11 22.0994 134.903 22.0597 134.619 22.0256C134.341 21.9858 134.071 21.9659 133.809 21.9659C133.247 21.9659 132.741 22.0881 132.292 22.3324C131.849 22.571 131.5 22.9034 131.244 23.3295C130.988 23.7557 130.86 24.2472 130.86 24.804V32.5H127.775ZM141.064 32.7642C140.234 32.7642 139.487 32.6165 138.822 32.321C138.163 32.0199 137.64 31.5767 137.254 30.9915C136.873 30.4062 136.683 29.6847 136.683 28.8267C136.683 28.0881 136.819 27.4773 137.092 26.9943C137.365 26.5114 137.737 26.125 138.208 25.8352C138.68 25.5455 139.211 25.3267 139.802 25.179C140.399 25.0256 141.015 24.9148 141.652 24.8466C142.419 24.767 143.041 24.696 143.518 24.6335C143.995 24.5653 144.342 24.4631 144.558 24.3267C144.779 24.1847 144.89 23.9659 144.89 23.6705V23.6193C144.89 22.9773 144.7 22.4801 144.319 22.1278C143.939 21.7756 143.39 21.5994 142.674 21.5994C141.919 21.5994 141.319 21.7642 140.876 22.0938C140.439 22.4233 140.143 22.8125 139.99 23.2614L137.109 22.8523C137.336 22.0568 137.711 21.392 138.234 20.858C138.757 20.3182 139.396 19.9148 140.152 19.6477C140.907 19.375 141.743 19.2386 142.657 19.2386C143.288 19.2386 143.916 19.3125 144.541 19.4602C145.166 19.608 145.737 19.8523 146.254 20.1932C146.771 20.5284 147.186 20.9858 147.498 21.5653C147.816 22.1449 147.975 22.8693 147.975 23.7386V32.5H145.01V30.7017H144.907C144.72 31.0653 144.456 31.4062 144.115 31.7244C143.779 32.0369 143.356 32.2898 142.845 32.483C142.339 32.6705 141.745 32.7642 141.064 32.7642ZM141.865 30.4972C142.484 30.4972 143.021 30.375 143.475 30.1307C143.93 29.8807 144.279 29.5511 144.524 29.142C144.774 28.733 144.899 28.2869 144.899 27.804V26.2614C144.802 26.3409 144.637 26.4148 144.404 26.483C144.177 26.5511 143.921 26.6108 143.637 26.6619C143.353 26.7131 143.072 26.7585 142.794 26.7983C142.515 26.8381 142.274 26.8722 142.069 26.9006C141.609 26.9631 141.197 27.0653 140.833 27.2074C140.47 27.3494 140.183 27.5483 139.973 27.804C139.762 28.054 139.657 28.3778 139.657 28.7756C139.657 29.3438 139.865 29.7727 140.279 30.0625C140.694 30.3523 141.223 30.4972 141.865 30.4972Z" fill="#2E90FA" style="fill:#2E90FA;fill:color(display-p3 0.1804 0.5647 0.9804);fill-opacity:1;"/>
</svg>
