<svg width="152" height="48" viewBox="0 0 152 48" fill="none" xmlns="http://www.w3.org/2000/svg">
<g opacity="0.84">
<path opacity="0.5" fill-rule="evenodd" clip-rule="evenodd" d="M34.5868 8.40049L24.9 5.80493C24.2313 5.62574 23.6892 6.04172 23.6892 6.73404V16.7625C23.6892 17.4549 24.2313 18.1614 24.9 18.3405L34.5868 20.9361C35.2555 21.1153 35.7977 20.6993 35.7977 20.007V9.9785C35.7977 9.28617 35.2555 8.57968 34.5868 8.40049ZM24.9 2.04424C22.2251 1.3275 20.0566 2.99141 20.0566 5.7607V15.7892C20.0566 18.5585 22.2251 21.3845 24.9 22.1012L34.5868 24.6968C37.2617 25.4135 39.4302 23.7496 39.4302 20.9803V10.9518C39.4302 8.18254 37.2617 5.35655 34.5868 4.63981L24.9 2.04424Z" fill="white" style="fill:white;fill-opacity:1;"/>
<path opacity="0.7" fill-rule="evenodd" clip-rule="evenodd" d="M26.9812 16.5707L14.8727 13.3263C14.204 13.1471 13.6618 13.5631 13.6618 14.2554V26.791C13.6618 27.4833 14.204 28.1898 14.8727 28.369L26.9812 31.6135C27.6499 31.7927 28.192 31.3767 28.192 30.6844V18.1488C28.192 17.4564 27.6499 16.7499 26.9812 16.5707ZM14.8727 9.5656C12.1978 8.84886 10.0293 10.5128 10.0293 13.2821V25.8177C10.0293 28.587 12.1978 31.413 14.8727 32.1297L26.9812 35.3742C29.6561 36.0909 31.8245 34.427 31.8245 31.6577V19.1221C31.8245 16.3528 29.6561 13.5268 26.9812 12.8101L14.8727 9.5656Z" fill="white" style="fill:white;fill-opacity:1;"/>
<path fill-rule="evenodd" clip-rule="evenodd" d="M19.3736 24.741L4.84339 20.8477C4.17466 20.6685 3.63254 21.0844 3.63254 21.7768V36.8195C3.63254 37.5118 4.17466 38.2183 4.84339 38.3975L19.3736 42.2909C20.0423 42.47 20.5844 42.0541 20.5844 41.3617V26.319C20.5844 25.6267 20.0423 24.9202 19.3736 24.741ZM4.84339 17.087C2.16846 16.3702 0 18.0341 0 20.8034V35.8462C0 38.6155 2.16846 41.4414 4.84339 42.1582L19.3736 46.0515C22.0485 46.7683 24.2169 45.1044 24.2169 42.3351V27.2923C24.2169 24.523 22.0485 21.6971 19.3736 20.9803L4.84339 17.087Z" fill="white" style="fill:white;fill-opacity:1;"/>
</g>
<g opacity="0.84">
<path d="M64.2955 32.7557C62.9886 32.7557 61.8665 32.4688 60.929 31.8949C59.9972 31.321 59.2784 30.5284 58.7727 29.517C58.2727 28.5 58.0227 27.3295 58.0227 26.0057C58.0227 24.6761 58.2784 23.5028 58.7898 22.4858C59.3011 21.4631 60.0227 20.6676 60.9545 20.0994C61.892 19.5256 63 19.2386 64.2784 19.2386C65.3409 19.2386 66.2813 19.4347 67.0994 19.8267C67.9233 20.2131 68.5795 20.7614 69.0682 21.4716C69.5568 22.1761 69.8352 23 69.9034 23.9432H66.9545C66.8352 23.3125 66.5511 22.7869 66.1023 22.3665C65.6591 21.9403 65.0653 21.7273 64.321 21.7273C63.6903 21.7273 63.1364 21.8977 62.6591 22.2386C62.1818 22.5739 61.8097 23.0568 61.5426 23.6875C61.2813 24.3182 61.1506 25.0739 61.1506 25.9545C61.1506 26.8466 61.2813 27.6136 61.5426 28.2557C61.804 28.892 62.1705 29.3835 62.642 29.7301C63.1193 30.071 63.679 30.2415 64.321 30.2415C64.7756 30.2415 65.1818 30.1562 65.5398 29.9858C65.9034 29.8097 66.2074 29.5568 66.4517 29.2273C66.696 28.8977 66.8636 28.4972 66.9545 28.0256H69.9034C69.8295 28.9517 69.5568 29.7727 69.0852 30.4886C68.6136 31.1989 67.9716 31.7557 67.1591 32.1591C66.3466 32.5568 65.392 32.7557 64.2955 32.7557ZM76.4438 32.7642C75.6143 32.7642 74.8671 32.6165 74.2024 32.321C73.5433 32.0199 73.0205 31.5767 72.6342 30.9915C72.2535 30.4062 72.0632 29.6847 72.0632 28.8267C72.0632 28.0881 72.1995 27.4773 72.4722 26.9943C72.745 26.5114 73.1171 26.125 73.5887 25.8352C74.0603 25.5455 74.5916 25.3267 75.1825 25.179C75.7791 25.0256 76.3955 24.9148 77.0319 24.8466C77.7989 24.767 78.4211 24.696 78.8984 24.6335C79.3757 24.5653 79.7222 24.4631 79.9382 24.3267C80.1597 24.1847 80.2705 23.9659 80.2705 23.6705V23.6193C80.2705 22.9773 80.0802 22.4801 79.6995 22.1278C79.3188 21.7756 78.7705 21.5994 78.0546 21.5994C77.2989 21.5994 76.6995 21.7642 76.2563 22.0938C75.8188 22.4233 75.5234 22.8125 75.37 23.2614L72.4893 22.8523C72.7166 22.0568 73.0916 21.392 73.6143 20.858C74.137 20.3182 74.7762 19.9148 75.5319 19.6477C76.2876 19.375 77.1228 19.2386 78.0376 19.2386C78.6683 19.2386 79.2961 19.3125 79.9211 19.4602C80.5461 19.608 81.1171 19.8523 81.6342 20.1932C82.1512 20.5284 82.566 20.9858 82.8785 21.5653C83.1967 22.1449 83.3558 22.8693 83.3558 23.7386V32.5H80.3899V30.7017H80.2876C80.1001 31.0653 79.8359 31.4062 79.495 31.7244C79.1597 32.0369 78.7364 32.2898 78.2251 32.483C77.7194 32.6705 77.1257 32.7642 76.4438 32.7642ZM77.245 30.4972C77.8643 30.4972 78.4012 30.375 78.8558 30.1307C79.3103 29.8807 79.6597 29.5511 79.9041 29.142C80.1541 28.733 80.2791 28.2869 80.2791 27.804V26.2614C80.1825 26.3409 80.0177 26.4148 79.7847 26.483C79.5575 26.5511 79.3018 26.6108 79.0177 26.6619C78.7336 26.7131 78.4524 26.7585 78.1739 26.7983C77.8955 26.8381 77.6541 26.8722 77.4495 26.9006C76.9893 26.9631 76.5774 27.0653 76.2137 27.2074C75.8501 27.3494 75.5632 27.5483 75.3529 27.804C75.1427 28.054 75.0376 28.3778 75.0376 28.7756C75.0376 29.3438 75.245 29.7727 75.6597 30.0625C76.0745 30.3523 76.6029 30.4972 77.245 30.4972ZM86.698 32.5V19.4091H89.6895V21.5909H89.8259C90.0645 20.8352 90.4736 20.2528 91.0532 19.8438C91.6384 19.429 92.306 19.2216 93.056 19.2216C93.2264 19.2216 93.4168 19.2301 93.627 19.2472C93.8429 19.2585 94.0219 19.2784 94.1639 19.3068V22.1449C94.0333 22.0994 93.8259 22.0597 93.5418 22.0256C93.2634 21.9858 92.9935 21.9659 92.7321 21.9659C92.1696 21.9659 91.6639 22.0881 91.2151 22.3324C90.7719 22.571 90.4225 22.9034 90.1668 23.3295C89.9111 23.7557 89.7833 24.2472 89.7833 24.804V32.5H86.698ZM108.545 19.4091L103.883 32.5H100.474L95.8123 19.4091H99.1021L102.111 29.1335H102.247L105.264 19.4091H108.545ZM110.92 32.5V19.4091H114.005V32.5H110.92ZM112.471 17.5511C111.983 17.5511 111.562 17.3892 111.21 17.0653C110.858 16.7358 110.682 16.3409 110.682 15.8807C110.682 15.4148 110.858 15.0199 111.21 14.696C111.562 14.3665 111.983 14.2017 112.471 14.2017C112.966 14.2017 113.386 14.3665 113.733 14.696C114.085 15.0199 114.261 15.4148 114.261 15.8807C114.261 16.3409 114.085 16.7358 113.733 17.0653C113.386 17.3892 112.966 17.5511 112.471 17.5511ZM123.955 19.4091V21.7955H116.429V19.4091H123.955ZM118.287 16.2727H121.373V28.5625C121.373 28.9773 121.435 29.2955 121.56 29.517C121.691 29.733 121.861 29.8807 122.071 29.9602C122.282 30.0398 122.515 30.0795 122.77 30.0795C122.963 30.0795 123.14 30.0653 123.299 30.0369C123.463 30.0085 123.588 29.983 123.674 29.9602L124.194 32.3722C124.029 32.429 123.793 32.4915 123.486 32.5597C123.185 32.6278 122.816 32.6676 122.378 32.679C121.606 32.7017 120.91 32.5852 120.29 32.3295C119.671 32.0682 119.179 31.6648 118.816 31.1193C118.458 30.5739 118.282 29.892 118.287 29.0739V16.2727ZM126.775 32.5V19.4091H129.767V21.5909H129.903C130.142 20.8352 130.551 20.2528 131.13 19.8438C131.716 19.429 132.383 19.2216 133.133 19.2216C133.304 19.2216 133.494 19.2301 133.704 19.2472C133.92 19.2585 134.099 19.2784 134.241 19.3068V22.1449C134.11 22.0994 133.903 22.0597 133.619 22.0256C133.341 21.9858 133.071 21.9659 132.809 21.9659C132.247 21.9659 131.741 22.0881 131.292 22.3324C130.849 22.571 130.5 22.9034 130.244 23.3295C129.988 23.7557 129.86 24.2472 129.86 24.804V32.5H126.775ZM140.064 32.7642C139.234 32.7642 138.487 32.6165 137.822 32.321C137.163 32.0199 136.64 31.5767 136.254 30.9915C135.873 30.4062 135.683 29.6847 135.683 28.8267C135.683 28.0881 135.819 27.4773 136.092 26.9943C136.365 26.5114 136.737 26.125 137.208 25.8352C137.68 25.5455 138.211 25.3267 138.802 25.179C139.399 25.0256 140.015 24.9148 140.652 24.8466C141.419 24.767 142.041 24.696 142.518 24.6335C142.995 24.5653 143.342 24.4631 143.558 24.3267C143.779 24.1847 143.89 23.9659 143.89 23.6705V23.6193C143.89 22.9773 143.7 22.4801 143.319 22.1278C142.939 21.7756 142.39 21.5994 141.674 21.5994C140.919 21.5994 140.319 21.7642 139.876 22.0938C139.439 22.4233 139.143 22.8125 138.99 23.2614L136.109 22.8523C136.336 22.0568 136.711 21.392 137.234 20.858C137.757 20.3182 138.396 19.9148 139.152 19.6477C139.907 19.375 140.743 19.2386 141.657 19.2386C142.288 19.2386 142.916 19.3125 143.541 19.4602C144.166 19.608 144.737 19.8523 145.254 20.1932C145.771 20.5284 146.186 20.9858 146.498 21.5653C146.816 22.1449 146.975 22.8693 146.975 23.7386V32.5H144.01V30.7017H143.907C143.72 31.0653 143.456 31.4062 143.115 31.7244C142.779 32.0369 142.356 32.2898 141.845 32.483C141.339 32.6705 140.745 32.7642 140.064 32.7642ZM140.865 30.4972C141.484 30.4972 142.021 30.375 142.475 30.1307C142.93 29.8807 143.279 29.5511 143.524 29.142C143.774 28.733 143.899 28.2869 143.899 27.804V26.2614C143.802 26.3409 143.637 26.4148 143.404 26.483C143.177 26.5511 142.921 26.6108 142.637 26.6619C142.353 26.7131 142.072 26.7585 141.794 26.7983C141.515 26.8381 141.274 26.8722 141.069 26.9006C140.609 26.9631 140.197 27.0653 139.833 27.2074C139.47 27.3494 139.183 27.5483 138.973 27.804C138.762 28.054 138.657 28.3778 138.657 28.7756C138.657 29.3438 138.865 29.7727 139.279 30.0625C139.694 30.3523 140.223 30.4972 140.865 30.4972Z" fill="white" style="fill:white;fill-opacity:1;"/>
</g>
</svg>
